<svg t="1651386607014" class="icon" viewBox="0 0 1024 1024" version="1.1" xmlns="http://www.w3.org/2000/svg" p-id="4403" width="200" height="200"><path d="M892.776296 938.666667H624.924444v-56.888889h210.962963V426.666667a28.444444 28.444444 0 0 0-28.444444-28.444445h-199.111111v-56.888889h199.111111a85.333333 85.333333 0 0 1 85.333333 85.333334z" fill="#0097FF" p-id="4404"></path><path d="M583.111111 142.222222v739.555556h-398.222222V142.222222h398.222222m0-56.888889h-398.222222a56.888889 56.888889 0 0 0-56.888889 56.888889v739.555556a56.888889 56.888889 0 0 0 56.888889 56.888889h398.222222a56.888889 56.888889 0 0 0 56.888889-56.888889V142.222222a56.888889 56.888889 0 0 0-56.888889-56.888889z" fill="#0097FF" p-id="4405"></path><path d="M56.888889 881.777778m9.481481 0l891.25926 0q9.481481 0 9.481481 9.481481l0 37.925926q0 9.481481-9.481481 9.481482l-891.25926 0q-9.481481 0-9.481481-9.481482l0-37.925926q0-9.481481 9.481481-9.481481Z" fill="#0097FF" p-id="4406"></path><path d="M243.01037 274.868148m9.481482 0l94.814815 0q9.481481 0 9.481481 9.481482l0 37.925926q0 9.481481-9.481481 9.481481l-94.814815 0q-9.481481 0-9.481482-9.481481l0-37.925926q0-9.481481 9.481482-9.481482Z" fill="#0097FF" p-id="4407"></path><path d="M404.764444 274.868148m9.481482 0l94.814815 0q9.481481 0 9.481481 9.481482l0 37.925926q0 9.481481-9.481481 9.481481l-94.814815 0q-9.481481 0-9.481482-9.481481l0-37.925926q0-9.481481 9.481482-9.481482Z" fill="#0097FF" p-id="4408"></path><path d="M764.776296 516.456296m0 9.481482l0 94.814815q0 9.481481-9.481481 9.481481l-37.925926 0q-9.481481 0-9.481482-9.481481l0-94.814815q0-9.481481 9.481482-9.481482l37.925926 0q9.481481 0 9.481481 9.481482Z" fill="#0097FF" p-id="4409"></path><path d="M764.776296 678.21037m0 9.481482l0 94.814815q0 9.481481-9.481481 9.481481l-37.925926 0q-9.481481 0-9.481482-9.481481l0-94.814815q0-9.481481 9.481482-9.481482l37.925926 0q9.481481 0 9.481481 9.481482Z" fill="#0097FF" p-id="4410"></path><path d="M243.01037 500.906667m9.481482 0l94.814815 0q9.481481 0 9.481481 9.481481l0 37.925926q0 9.481481-9.481481 9.481482l-94.814815 0q-9.481481 0-9.481482-9.481482l0-37.925926q0-9.481481 9.481482-9.481481Z" fill="#0097FF" p-id="4411"></path><path d="M404.764444 500.906667m9.481482 0l94.814815 0q9.481481 0 9.481481 9.481481l0 37.925926q0 9.481481-9.481481 9.481482l-94.814815 0q-9.481481 0-9.481482-9.481482l0-37.925926q0-9.481481 9.481482-9.481481Z" fill="#0097FF" p-id="4412"></path><path d="M243.01037 727.04m9.481482 0l94.814815 0q9.481481 0 9.481481 9.481481l0 37.925926q0 9.481481-9.481481 9.481482l-94.814815 0q-9.481481 0-9.481482-9.481482l0-37.925926q0-9.481481 9.481482-9.481481Z" fill="#0097FF" p-id="4413"></path><path d="M404.764444 727.04m9.481482 0l94.814815 0q9.481481 0 9.481481 9.481481l0 37.925926q0 9.481481-9.481481 9.481482l-94.814815 0q-9.481481 0-9.481482-9.481482l0-37.925926q0-9.481481 9.481482-9.481481Z" fill="#0097FF" p-id="4414"></path></svg>